<svg width="250" height="150" viewBox="0 0 250 150" fill="none" xmlns="http://www.w3.org/2000/svg">
<g clip-path="url(#clip0_14_9)">
<rect width="250" height="150" rx="20" fill="white"/>
<path fill-rule="evenodd" clip-rule="evenodd" d="M271.996 126.898L263.909 121.26C255.56 115.591 239.386 104.315 222.593 96.1045C205.8 87.8945 188.913 82.8112 171.585 79.2462C154.257 75.6812 137.013 73.6946 119.15 74.7746C101.287 75.8547 83.3289 80.0615 64.9311 85.7865C46.5332 91.5116 28.2183 98.8151 11.2474 92.1534C-5.72347 85.4917 -20.8278 64.925 -28.6412 54.6115L-36.1934 44.3282L-45.8252 127.939L-37.2028 128.932C-28.3192 129.956 -11.0745 131.942 6.4315 133.959C23.9375 135.975 41.1822 137.962 58.6882 139.979C76.1942 141.995 93.4389 143.982 110.945 145.999C128.451 148.015 145.696 150.002 163.202 152.018C180.708 154.035 197.952 156.022 215.458 158.038C232.964 160.055 250.209 162.042 259.093 163.065L267.715 164.058L271.996 126.898Z" fill="#90E0EF"/>
<path fill-rule="evenodd" clip-rule="evenodd" d="M-121 140.667L-109.505 135.5C-97.6617 130.333 -74.6717 120 -51.3333 113.111C-27.995 106.222 -5.005 102.778 18.3333 101.056C41.6717 99.3333 64.6617 99.3333 88 102.778C111.338 106.222 134.328 113.111 157.667 121.722C181.005 130.333 203.995 140.667 227.333 135.5C250.672 130.333 273.662 109.667 285.505 99.3333L297 89V182H285.505C273.662 182 250.672 182 227.333 182C203.995 182 181.005 182 157.667 182C134.328 182 111.338 182 88 182C64.6617 182 41.6717 182 18.3333 182C-5.005 182 -27.995 182 -51.3333 182C-74.6717 182 -97.6617 182 -109.505 182H-121V140.667Z" fill="#00B4D8"/>
<rect x="83" y="52" width="84" height="10" rx="5" fill="#4A4A4A" fill-opacity="0.24"/>
<rect x="54" y="21" width="143" height="17" rx="5" fill="#171717" fill-opacity="0.39"/>
<path d="M121.562 80.8125C122.11 80.8125 122.634 81.0298 123.021 81.4166C123.408 81.8034 123.625 82.328 123.625 82.875V91.125C123.625 91.672 123.408 92.1966 123.021 92.5834C122.634 92.9702 122.11 93.1875 121.562 93.1875C121.015 93.1875 120.491 92.9702 120.104 92.5834C119.717 92.1966 119.5 91.672 119.5 91.125V82.875C119.5 82.328 119.717 81.8034 120.104 81.4166C120.491 81.0298 121.015 80.8125 121.562 80.8125V80.8125ZM128.438 80.8125C128.985 80.8125 129.509 81.0298 129.896 81.4166C130.283 81.8034 130.5 82.328 130.5 82.875V91.125C130.5 91.672 130.283 92.1966 129.896 92.5834C129.509 92.9702 128.985 93.1875 128.438 93.1875C127.89 93.1875 127.366 92.9702 126.979 92.5834C126.592 92.1966 126.375 91.672 126.375 91.125V82.875C126.375 82.328 126.592 81.8034 126.979 81.4166C127.366 81.0298 127.89 80.8125 128.438 80.8125Z" fill="#383838"/>
</g>
<defs>
<clipPath id="clip0_14_9">
<rect width="250" height="150" rx="20" fill="white"/>
</clipPath>
</defs>
</svg>
